#!OML:ASF C:\ViconDB\ViconDB\414\Spring2016\041811\Spring2016.ASF
:FULLY-SPECIFIED
:DEGREES
293
root 9.21971 18.1398 -32.6115 -181.162 4.636 -175.47
lowerback -1.099 3.91045 2.31131
upperback 1.92918 5.19102 1.1958
thorax 2.68971 2.64609 0.122309
lowerneck -9.39096 -4.84197 -11.3736
upperneck 16.7035 -8.39836 14.8198
head 7.76778 -3.86448 5.96272
rclavicle -9.96408e-015 6.16232e-015
rhumerus -28.8336 -10.25 -82.4121
rradius 41.6968
rwrist 32.8233
rhand -33.6797 -13.4559
rfingers 7.12502
rthumb -6.87036 -43.3245
lclavicle -9.96408e-015 6.16232e-015
lhumerus -48.4516 7.8355 84.1697
lradius 26.3521
lwrist -30.9918
lhand -34.7441 20.9187
lfingers 7.12502
lthumb -7.89783 50.7512
rfemur 24.534 -8.8905 20.5866
rtibia 13.3249
rfoot -155.011 4.91243
rtoes -10.5159
lfemur -26.173 -5.58867 -10.7575
ltibia 26.8611
lfoot -9.22072 9.37061
ltoes -8.89003
294
root 9.19118 18.1584 -32.855 -181.32 4.47643 -175.492
lowerback -1.1453 3.84465 2.08404
upperback 1.88379 5.10455 1.14412
thorax 2.65198 2.59668 0.192218
lowerneck -9.42794 -4.86186 -11.3204
upperneck 16.981 -8.55361 15.0048
head 7.89309 -3.93306 6.00384
rclavicle -1.83192e-014 3.37934e-015
rhumerus -29.5414 -11.1094 -82.2962
rradius 41.745
rwrist 33.0642
rhand -33.4118 -13.5496
rfingers 7.12502
rthumb -6.61174 -43.4264
lclavicle -1.83192e-014 3.37934e-015
lhumerus -48.2847 7.55059 84.3366
lradius 26.1715
lwrist -31.2824
lhand -34.6565 20.8373
lfingers 7.12502
lthumb -7.81325 50.6729
rfemur 22.5419 -9.06078 20.2554
rtibia 18.0437
rfoot -154.462 4.46162
rtoes -11.2178
lfemur -25.3146 -5.47201 -11.0646
ltibia 26.7645
lfoot -7.23441 8.2964
ltoes -7.07085
295
root 9.16288 18.1894 -33.0949 -181.597 4.29066 -175.65
lowerback -1.13402 3.73902 1.70392
upperback 1.93379 4.97155 1.08583
thorax 2.66761 2.523 0.33804
lowerneck -9.55227 -4.8526 -11.1902
upperneck 17.2616 -8.6299 15.0401
head 8.01461 -3.96156 5.98739
rclavicle -1.14668e-013 -4.96962e-015
rhumerus -30.1473 -12.1268 -82.1503
rradius 41.7023
rwrist 33.4279
rhand -33.4605 -13.6725
rfingers 7.12502
rthumb -6.65877 -43.5478
lclavicle -1.14668e-013 -4.96962e-015
lhumerus -47.9287 6.9472 84.8695
lradius 25.9245
lwrist -30.9256
lhand -34.8191 20.9109
lfingers 7.12502
lthumb -7.97016 50.7407
rfemur 20.7216 -9.20063 19.7985
rtibia 22.5002
rfoot -153.522 3.4317
rtoes -11.9074
lfemur -24.3929 -4.90063 -11.6629
ltibia 26.8469
lfoot -6.86798 7.79465
ltoes -7.0565
296
root 9.14037 18.2153 -33.3177 -181.912 4.05315 -175.743
lowerback -0.887845 3.53456 1.19806
upperback 1.95577 4.7153 1.10751
thorax 2.50642 2.38545 0.612689
lowerneck -9.60063 -4.74863 -11.0201
upperneck 17.4131 -8.55505 15.0523
head 8.05477 -3.91948 5.97269
rclavicle -4.09931e-014 -7.95139e-015
rhumerus -30.7402 -12.675 -82.1283
rradius 41.5837
rwrist 33.4732
rhand -33.6331 -13.8918
rfingers 7.12502
rthumb -6.82539 -43.7617
lclavicle -4.09931e-014 -7.95139e-015
lhumerus -47.5155 7.10202 84.8965
lradius 25.5311
lwrist -31.4888
lhand -34.6503 20.7262
lfingers 7.12502
lthumb -7.80729 50.5621
rfemur 18.8349 -9.68265 19.3288
rtibia 26.917
rfoot -152.327 1.93123
rtoes -13.6716
lfemur -23.5182 -4.1334 -12.1716
ltibia 27.0407
lfoot -6.79744 7.22445
ltoes -7.27096
297
root 9.10618 18.245 -33.5644 -181.96 3.70524 -175.611
lowerback -1.19557 3.37603 1.23252
upperback 1.98685 4.4957 1.08326
thorax 2.71585 2.27604 0.584086
lowerneck -9.64979 -4.74703 -11.0694
upperneck 17.5112 -8.63054 15.2868
head 8.11992 -3.94711 6.05561
rclavicle -4.49626e-014 -2.78299e-015
rhumerus -31.4397 -13.3221 -82.0995
rradius 41.4482
rwrist 33.239
rhand -33.7955 -13.8536
rfingers 7.12502
rthumb -6.98214 -43.7185
lclavicle -4.49626e-014 -2.78299e-015
lhumerus -46.9842 6.68103 85.1975
lradius 25.0766
lwrist -31.9407
lhand -34.6553 20.6855
lfingers 7.12502
lthumb -7.81205 50.5212
rfemur 16.7124 -10.1748 19.0786
rtibia 31.3822
rfoot -151.754 0.426787
rtoes -15.1999
lfemur -22.8135 -3.2014 -12.5033
ltibia 27.2092
lfoot -6.5818 5.8603
ltoes -6.92926
298
root 9.06837 18.2797 -33.8447 -181.478 2.95653 -175.978
lowerback -2.4818 3.14297 0.881111
upperback 1.94358 4.16538 0.817525
thorax 3.38949 2.09794 0.573433
lowerneck -9.70137 -4.79192 -11.0173
upperneck 17.6074 -8.78166 15.4719
head 8.19023 -4.0082 6.09403
rclavicle -1.04983e-014 2.38542e-015
rhumerus -32.2465 -13.9426 -82.127
rradius 41.3251
rwrist 32.9858
rhand -34.1197 -13.9989
rfingers 7.12502
rthumb -7.29513 -43.8532
lclavicle -1.04983e-014 2.38542e-015
lhumerus -46.4489 5.59869 85.7213
lradius 24.7615
lwrist -32.2284
lhand -34.4137 20.7484
lfingers 7.12502
lthumb -7.57891 50.5926
rfemur 14.2198 -11.4862 17.9343
rtibia 35.8403
rfoot -150.501 -0.6582
rtoes -15.2099
lfemur -22.611 -2.34556 -13.4821
ltibia 27.3537
lfoot -6.59592 4.00516
ltoes -6.87692
299
root 9.03908 18.308 -34.0682 -181.506 2.31072 -176.724
lowerback -2.56822 2.88658 0.0253397
upperback 1.92385 3.85823 0.541513
thorax 3.38012 1.92519 0.752595
lowerneck -9.81502 -4.79858 -11.0848
upperneck 17.7653 -8.84736 15.6276
head 8.2837 -4.0325 6.15444
rclavicle -6.65929e-015 4.77083e-015
rhumerus -32.9782 -14.9101 -81.9507
rradius 41.1047
rwrist 33.6634
rhand -34.1844 -14.0969
rfingers 7.12502
rthumb -7.35757 -43.949
lclavicle -6.65929e-015 4.77083e-015
lhumerus -45.84 4.80418 86.1091
lradius 24.432
lwrist -32.7343
lhand -34.1212 20.4464
lfingers 7.12502
lthumb -7.2966 50.3006
rfemur 11.9893 -12.4354 16.5746
rtibia 40.3075
rfoot -150.012 -1.7362
rtoes -15.7753
lfemur -22.0038 -1.59383 -14.7406
ltibia 27.4443
lfoot -6.75976 2.63734
ltoes -7.05301
300
root 9.0151 18.3379 -34.2759 -181.7 1.93442 -176.681
lowerback -2.21043 2.7294 0.0724677
upperback 1.84903 3.65117 0.383372
thorax 3.11649 1.82607 0.5313
lowerneck -9.72618 -4.73696 -10.8952
upperneck 17.8118 -8.85999 15.7246
head 8.28016 -4.03356 6.15559
rclavicle 7.29415e-014 -1.19271e-015
rhumerus -33.9065 -16.321 -81.824
rradius 40.8943
rwrist 34.4238
rhand -34.2244 -13.9066
rfingers 7.12502
rthumb -7.39617 -43.7574
lclavicle 7.29415e-014 -1.19271e-015
lhumerus -45.3242 4.07406 86.142
lradius 24.1775
lwrist -33.785
lhand -33.5555 20.1608
lfingers 7.12502
lthumb -6.75049 50.0332
rfemur 9.72086 -12.899 16.3769
rtibia 44.8452
rfoot -149.612 -3.5503
rtoes -13.9498
lfemur -21.0174 -1.1177 -14.9387
ltibia 27.2264
lfoot -6.8759 1.76792
ltoes -7.30517
301
root 8.99311 18.3705 -34.4752 -181.776 1.72396 -176.43
lowerback -1.8544 2.57583 0.184598
upperback 1.74473 3.44193 0.436719
thorax 2.81306 1.72472 0.491852
lowerneck -9.8039 -4.71408 -10.9223
upperneck 17.9852 -8.83199 15.6511
head 8.34511 -4.02461 6.14051
rclavicle -3.97569e-016 -1.19271e-014
rhumerus -34.7417 -15.847 -81.9712
rradius 40.8672
rwrist 33.6635
rhand -34.0621 -14.32
rfingers 7.12502
rthumb -7.23949 -44.1762
lclavicle -3.97569e-016 -1.19271e-014
lhumerus -44.8341 2.96577 86.8842
lradius 24.1187
lwrist -33.319
lhand -33.4325 20.2514
lfingers 7.12502
lthumb -6.63171 50.1275
rfemur 7.22007 -13.2056 16.5655
rtibia 49.2795
rfoot -149.758 -5.4455
rtoes -13.2539
lfemur -20.0155 -0.961818 -14.8201
ltibia 26.7803
lfoot -7.18845 1.16115
ltoes -7.48309
302
root 8.93447 18.3977 -34.6574 -181.449 1.71919 -178.12
lowerback -1.75561 2.43065 -1.20476
upperback 1.45871 3.2991 -0.249314
thorax 2.42636 1.63456 0.543227
lowerneck -9.80001 -4.5738 -10.6309
upperneck 18.1412 -8.71668 15.5683
head 8.36124 -3.96585 6.07675
rclavicle -3.66696e-014 2.78299e-015
rhumerus -35.5792 -16.353 -82.0647
rradius 40.6383
rwrist 33.9481
rhand -33.9504 -14.0438
rfingers 7.12502
rthumb -7.13164 -43.9037
lclavicle -3.66696e-014 2.78299e-015
lhumerus -44.436 1.93377 87.2491
lradius 24.1531
lwrist -33.0399
lhand -33.0143 20.1232
lfingers 7.12502
lthumb -6.22799 50.0116
rfemur 4.21929 -13.7884 14.2451
rtibia 53.6326
rfoot -149.556 -6.40699
rtoes -12.7751
lfemur -19.3882 -1.22376 -16.9698
ltibia 26.2783
lfoot -7.71306 1.39297
ltoes -7.48333
303
root 8.9032 18.4198 -34.8461 -181.569 1.71585 -178.851
lowerback -1.39635 2.27979 -1.96078
upperback 1.39178 3.12051 -0.493643
thorax 2.1328 1.54072 0.689451
lowerneck -9.80835 -4.44211 -10.5438
upperneck 18.2191 -8.52983 15.4488
head 8.35079 -3.88078 6.04344
rclavicle 2.16489e-014 5.1684e-015
rhumerus -36.3417 -16.5687 -82.1198
rradius 40.5227
rwrist 34.2044
rhand -33.5384 -14.3029
rfingers 7.12502
rthumb -6.73396 -44.1759
lclavicle 2.16489e-014 5.1684e-015
lhumerus -43.933 1.03418 87.6752
lradius 24.2796
lwrist -32.9882
lhand -32.4896 19.919
lfingers 7.12502
lthumb -5.72142 49.8218
rfemur 1.80907 -14.2041 13.2558
rtibia 57.564
rfoot -150.473 -7.07651
rtoes -12.3924
lfemur -18.259 -1.25371 -17.965
ltibia 25.7561
lfoot -8.0988 1.43441
ltoes -7.51483
